<svg width="20" height="20" viewBox="0 0 20 20" fill="none" xmlns="http://www.w3.org/2000/svg">
<path d="M4.68485 3.68485L1.85355 0.853553C1.53857 0.538571 1 0.761654 1 1.20711V18.5C1 18.7761 1.22386 19 1.5 19H18.7929C19.2383 19 19.4614 18.4614 19.1464 18.1464L16.6606 15.6606M4.68485 3.68485L3.18788 5.18182M4.68485 3.68485L6.64242 5.64242M6.64242 5.64242L5.83636 6.44848M6.64242 5.64242L8.8303 7.8303M8.8303 7.8303L7.33333 9.32727M8.8303 7.8303L10.7879 9.78788M10.7879 9.78788L9.98182 10.5939M10.7879 9.78788L12.7455 11.7455M12.7455 11.7455L11.3636 13.1273M12.7455 11.7455L14.8182 13.8182M14.8182 13.8182L13.897 14.7394M14.8182 13.8182L16.6606 15.6606M16.6606 15.6606L15.3939 16.9273M10.6171 15.6606H5.3C5.02386 15.6606 4.8 15.4367 4.8 15.1606V9.84347C4.8 9.39802 5.33857 9.17493 5.65355 9.48992L10.9707 14.8071C11.2857 15.122 11.0626 15.6606 10.6171 15.6606Z" stroke="#fff" stroke-linecap="round" stroke-linejoin="round"/>
</svg>
