<svg width="18" height="18" viewBox="0 0 18 18" fill="none" xmlns="http://www.w3.org/2000/svg">
<path d="M15.7333 4.52104V12.601M15.7333 4.52104C15.6053 4.54504 15.4693 4.56104 15.3333 4.56104C14.2293 4.56104 13.3333 3.66504 13.3333 2.56104C13.3333 2.42504 13.3493 2.28904 13.3733 2.16104M15.7333 4.52104C16.6453 4.33704 17.3333 3.52904 17.3333 2.56104C17.3333 1.45704 16.4373 0.561035 15.3333 0.561035C14.3653 0.561035 13.5573 1.24904 13.3733 2.16104M15.7333 12.601C15.6053 12.577 15.4693 12.561 15.3333 12.561C14.2293 12.561 13.3333 13.457 13.3333 14.561C13.3333 14.697 13.3493 14.833 13.3733 14.961M15.7333 12.601C16.6453 12.785 17.3333 13.593 17.3333 14.561C17.3333 15.665 16.4373 16.561 15.3333 16.561C14.3653 16.561 13.5573 15.873 13.3733 14.961M13.3733 14.961H5.29325M5.29325 14.961C5.31725 14.833 5.33325 14.697 5.33325 14.561C5.33325 13.457 4.43725 12.561 3.33325 12.561C3.19725 12.561 3.06125 12.577 2.93325 12.601M5.29325 14.961C5.10925 15.873 4.30125 16.561 3.33325 16.561C2.22925 16.561 1.33325 15.665 1.33325 14.561C1.33325 13.593 2.02125 12.785 2.93325 12.601M2.93325 12.601V4.52104M2.93325 4.52104C3.06125 4.54504 3.19725 4.56104 3.33325 4.56104C4.43725 4.56104 5.33325 3.66504 5.33325 2.56104C5.33325 2.42504 5.31725 2.28904 5.29325 2.16104M2.93325 4.52104C2.02125 4.33704 1.33325 3.52904 1.33325 2.56104C1.33325 1.45704 2.22925 0.561035 3.33325 0.561035C4.30125 0.561035 5.10925 1.24904 5.29325 2.16104M5.29325 2.16104H13.3733" stroke="white" stroke-linecap="round" stroke-linejoin="round"/>
</svg>
