<svg width="18" height="18" viewBox="0 0 18 18" fill="none" xmlns="http://www.w3.org/2000/svg">
<path d="M1.06061 5.38095L0.564245 5.44111L0.564246 5.44112L1.06061 5.38095ZM1.00929 4.58792L0.514294 4.51739L0.514294 4.51739L1.00929 4.58792ZM1.8942 3.55425L1.75687 3.07348L1.75686 3.07348L1.8942 3.55425ZM16.1058 3.55425L16.2431 3.07348L16.2431 3.07347L16.1058 3.55425ZM16.9907 4.58792L17.4857 4.51751L17.4857 4.51733L16.9907 4.58792ZM16.9394 5.38095L17.4357 5.44112V5.44112L16.9394 5.38095ZM16.5738 7.49805L16.1033 7.32887L16.1033 7.32893L16.5738 7.49805ZM13.6784 10.1338L13.5608 9.64778L13.5607 9.6478L13.6784 10.1338ZM4.32156 10.1338L4.43925 9.6478L4.43919 9.64778L4.32156 10.1338ZM1.42618 7.49805L1.89671 7.32893L1.8967 7.3289L1.42618 7.49805ZM9 7.21893C8.72385 7.21893 8.5 7.44279 8.5 7.71893C8.5 7.99507 8.72385 8.21893 9 8.21893V7.21893ZM9.00758 8.21893C9.28372 8.21893 9.50758 7.99507 9.50758 7.71893C9.50758 7.44279 9.28372 7.21893 9.00758 7.21893V8.21893ZM2.3421 8.56104C2.3421 8.28489 2.11824 8.06104 1.8421 8.06104C1.56596 8.06104 1.3421 8.28489 1.3421 8.56104H2.3421ZM2.77388 15.7619L3.0994 15.3823L3.09937 15.3823L2.77388 15.7619ZM15.2261 15.7619L14.9006 15.3823L14.9006 15.3823L15.2261 15.7619ZM16.6579 8.56104C16.6579 8.28489 16.434 8.06104 16.1579 8.06104C15.8817 8.06104 15.6579 8.28489 15.6579 8.56104H16.6579ZM12.2941 3.24814L12.7748 3.11079V3.11079L12.2941 3.24814ZM11.2972 0.931924L11.619 0.549232L11.619 0.549229L11.2972 0.931924ZM6.70282 0.931924L6.38102 0.549238L6.38102 0.549238L6.70282 0.931924ZM5.70593 3.24814L5.22517 3.11078L5.22517 3.11079L5.70593 3.24814ZM1.06061 5.38095L1.55698 5.32079C1.50258 4.87193 1.49177 4.74636 1.50429 4.65846L1.00929 4.58792L0.514294 4.51739C0.478398 4.76931 0.517949 5.05915 0.564245 5.44111L1.06061 5.38095ZM1.00929 4.58792L1.50429 4.65846C1.54799 4.35182 1.7607 4.11239 2.03154 4.03502L1.8942 3.55425L1.75686 3.07348C1.09288 3.26316 0.611619 3.83439 0.514294 4.51739L1.00929 4.58792ZM1.8942 3.55425L2.03154 4.03502C2.10744 4.01333 2.22195 4.0084 2.66368 4.0084V3.5084V3.0084C2.29343 3.0084 2.00194 3.00347 1.75687 3.07348L1.8942 3.55425ZM2.66368 3.5084V4.0084H15.3363V3.5084V3.0084H2.66368V3.5084ZM15.3363 3.5084V4.0084C15.778 4.0084 15.8925 4.01333 15.9684 4.03502L16.1058 3.55425L16.2431 3.07347C15.998 3.00347 15.7066 3.0084 15.3363 3.0084V3.5084ZM16.1058 3.55425L15.9684 4.03502C16.2393 4.11238 16.452 4.35181 16.4957 4.65852L16.9907 4.58792L17.4857 4.51733C17.3883 3.8344 16.9071 3.26316 16.2431 3.07348L16.1058 3.55425ZM16.9907 4.58792L16.4957 4.65834C16.5082 4.74631 16.4974 4.87196 16.443 5.32078L16.9394 5.38095L17.4357 5.44112C17.482 5.05912 17.5216 4.76936 17.4857 4.51751L16.9907 4.58792ZM16.9394 5.38095L16.443 5.32078C16.3057 6.45373 16.2439 6.93792 16.1033 7.32887L16.5738 7.49805L17.0443 7.66722C17.2325 7.14382 17.3048 6.52136 17.4357 5.44112L16.9394 5.38095ZM16.5738 7.49805L16.1033 7.32893C15.6827 8.49915 14.7249 9.36603 13.5608 9.64778L13.6784 10.1338L13.796 10.6197C15.297 10.2564 16.5135 9.14402 17.0443 7.66716L16.5738 7.49805ZM13.6784 10.1338L13.5607 9.6478C13.1727 9.74177 12.7052 9.74525 11.5959 9.74525V10.2452V10.7452C12.6494 10.7452 13.2633 10.7487 13.7961 10.6197L13.6784 10.1338ZM11.5959 10.2452V9.74525H6.40415V10.2452V10.7452H11.5959V10.2452ZM6.40415 10.2452V9.74525C5.29475 9.74525 4.82725 9.74177 4.43925 9.6478L4.32156 10.1338L4.20387 10.6197C4.73662 10.7487 5.3506 10.7452 6.40415 10.7452V10.2452ZM4.32156 10.1338L4.43919 9.64778C3.27511 9.36603 2.31732 8.49915 1.89671 7.32893L1.42618 7.49805L0.955649 7.66717C1.48647 9.14401 2.70295 10.2564 4.20394 10.6197L4.32156 10.1338ZM1.42618 7.49805L1.8967 7.3289C1.75614 6.93792 1.69432 6.4537 1.55698 5.32078L1.06061 5.38095L0.564246 5.44112C0.695202 6.52139 0.767505 7.14381 0.955659 7.6672L1.42618 7.49805ZM9 7.71893V8.21893H9.00758V7.71893V7.21893H9V7.71893ZM1.8421 8.56104H1.3421V11.1042H1.8421H2.3421V8.56104H1.8421ZM1.8421 11.1042H1.3421C1.3421 12.374 1.34067 13.3848 1.46461 14.1755C1.59219 14.9893 1.86184 15.6384 2.44839 16.1414L2.77388 15.7619L3.09937 15.3823C2.75415 15.0863 2.55791 14.6927 2.45254 14.0206C2.34354 13.3252 2.3421 12.4068 2.3421 11.1042H1.8421ZM2.77388 15.7619L2.44837 16.1414C3.02383 16.635 3.7475 16.853 4.65667 16.9578C5.55833 17.0618 6.71719 17.061 8.20471 17.061V16.561V16.061C6.69285 16.061 5.60218 16.0603 4.77122 15.9644C3.94776 15.8695 3.45571 15.6879 3.0994 15.3823L2.77388 15.7619ZM8.20471 16.561V17.061H9.79528V16.561V16.061H8.20471V16.561ZM9.79528 16.561V17.061C11.2828 17.061 12.4417 17.0618 13.3433 16.9578C14.2525 16.853 14.9761 16.635 15.5516 16.1414L15.2261 15.7619L14.9006 15.3823C14.5443 15.688 14.0522 15.8695 13.2288 15.9644C12.3978 16.0603 11.3072 16.061 9.79528 16.061V16.561ZM15.2261 15.7619L15.5516 16.1414C16.1381 15.6384 16.4078 14.9893 16.5354 14.1755C16.6593 13.3848 16.6579 12.374 16.6579 11.1042H16.1579H15.6579C15.6579 12.4068 15.6565 13.3252 15.5474 14.0206C15.4421 14.6927 15.2458 15.0863 14.9006 15.3823L15.2261 15.7619ZM16.1579 11.1042H16.6579V8.56104H16.1579H15.6579V11.1042H16.1579ZM12.3684 3.5084L12.8492 3.37105L12.7748 3.11079L12.2941 3.24814L11.8133 3.3855L11.8877 3.64576L12.3684 3.5084ZM12.2941 3.24814L12.7748 3.11079C12.5924 2.47236 12.4459 1.95722 12.2865 1.55759C12.1242 1.1506 11.929 0.809944 11.619 0.549232L11.2972 0.931924L10.9754 1.31461C11.1064 1.4248 11.2244 1.59381 11.3576 1.92798C11.4938 2.26952 11.6252 2.72704 11.8133 3.3855L12.2941 3.24814ZM11.2972 0.931924L11.619 0.549229C11.3023 0.283004 10.9446 0.165954 10.5378 0.111773C10.1492 0.0600119 9.67099 0.0610352 9.09852 0.0610352V0.561035V1.06104C9.69776 1.06104 10.0983 1.06206 10.4058 1.10302C10.6952 1.14156 10.8509 1.20995 10.9754 1.31462L11.2972 0.931924ZM9.09852 0.561035V0.0610352H8.90147V0.561035V1.06104H9.09852V0.561035ZM8.90147 0.561035V0.0610352C8.329 0.0610352 7.85075 0.060012 7.46214 0.111773C7.05537 0.165954 6.69764 0.283003 6.38102 0.549238L6.70282 0.931924L7.02461 1.31461C7.14907 1.20996 7.30481 1.14156 7.59417 1.10302C7.90169 1.06206 8.30223 1.06104 8.90147 1.06104V0.561035ZM6.70282 0.931924L6.38102 0.549238C6.07098 0.809951 5.87577 1.15061 5.71349 1.55759C5.55414 1.95722 5.40758 2.47235 5.22517 3.11078L5.70593 3.24814L6.18669 3.3855C6.37483 2.72705 6.50618 2.26952 6.64236 1.92798C6.77562 1.5938 6.89358 1.42479 7.02461 1.31461L6.70282 0.931924ZM5.70593 3.24814L5.22517 3.11079L5.15081 3.37105L5.63158 3.5084L6.11234 3.64576L6.1867 3.3855L5.70593 3.24814Z" fill="white"/>
</svg>
