<svg width="24" height="25" viewBox="0 0 24 25" fill="none" xmlns="http://www.w3.org/2000/svg">
<path d="M7.25 9.26694L10.0449 10.904C11.6743 11.8585 12.3256 11.8585 13.9551 10.904L16.75 9.26694M2.51498 13.9498C2.57709 16.835 2.60813 18.2777 3.68271 19.3463C4.75728 20.415 6.25281 20.4521 9.24388 20.5266C11.0873 20.5725 12.9127 20.5725 14.7561 20.5266C17.7472 20.4521 19.2427 20.415 20.3172 19.3463C21.3919 18.2777 21.4229 16.835 21.485 13.9498C21.505 13.0221 21.505 12.0999 21.485 11.1723C21.4229 8.28702 21.3919 6.84441 20.3172 5.77577C19.2427 4.70713 17.7472 4.66991 14.7561 4.59546C12.9127 4.54956 11.0873 4.54956 9.24387 4.59545C6.25281 4.66989 4.75728 4.70712 3.68271 5.77576C2.60813 6.8444 2.57708 8.28701 2.51498 11.1722C2.49501 12.0999 2.49501 13.0221 2.51498 13.9498Z" stroke="url(#paint0_linear_305_433)" stroke-width="1.5" stroke-linecap="round" stroke-linejoin="round"/>
<defs>
<linearGradient id="paint0_linear_305_433" x1="39.55" y1="26.5" x2="5.84394" y2="35.9066" gradientUnits="userSpaceOnUse">
<stop offset="0.293631" stop-color="#F4D300"/>
<stop offset="0.837943" stop-color="#AB7E0D"/>
</linearGradient>
</defs>
</svg>
