<svg width="89" height="56" viewBox="0 0 89 56" fill="none" xmlns="http://www.w3.org/2000/svg">
<path d="M8.38273 54.8831H1.14749C1.09347 54.8831 1.06728 54.8567 1.06728 54.8023V41.8218C1.06728 41.6865 1.00017 41.6189 0.865939 41.6189H0.201344C0.067116 41.6189 0 41.6865 0 41.8218V55.6337C0 55.769 0.067116 55.8367 0.201344 55.8367H8.38437C8.5186 55.8367 8.58571 55.769 8.58571 55.6337V55.086C8.58571 54.9507 8.5186 54.8831 8.38437 54.8831H8.38273Z" fill="#665A44"/>
<path d="M24.446 41.6189H23.7814C23.6472 41.6189 23.5801 41.6865 23.5801 41.8218V51.572C23.5801 52.6147 23.251 53.4544 22.593 54.0912C21.935 54.728 21.0608 55.0464 19.9723 55.0464C18.8837 55.0464 18.0276 54.728 17.363 54.0912C16.6984 53.4544 16.3661 52.6147 16.3661 51.572V41.8218C16.3661 41.6865 16.299 41.6189 16.1648 41.6189H15.5002C15.3659 41.6189 15.2988 41.6865 15.2988 41.8218V51.5308C15.2988 52.4117 15.4936 53.1888 15.8832 53.8668C16.2728 54.5449 16.8195 55.0695 17.5251 55.4407C18.2306 55.8136 19.0474 56 19.9739 56C20.9004 56 21.7172 55.8136 22.4228 55.4407C23.1283 55.0679 23.675 54.5432 24.0646 53.8668C24.4542 53.1904 24.649 52.4117 24.649 51.5308V41.8218C24.649 41.6865 24.5819 41.6189 24.4476 41.6189H24.446Z" fill="#665A44"/>
<path d="M37.0831 48.8103C37.07 48.769 37.07 48.7294 37.0831 48.6882L41.3768 41.8631C41.4177 41.7954 41.4275 41.7377 41.4062 41.6898C41.3866 41.642 41.3358 41.6189 41.2556 41.6189H40.5305C40.4372 41.6189 40.3553 41.6667 40.2882 41.7608L36.4791 47.8138C36.466 47.827 36.4447 47.8336 36.4185 47.8336C36.3923 47.8336 36.371 47.827 36.3579 47.8138L32.5488 41.7608C32.4817 41.6667 32.4015 41.6189 32.3065 41.6189H31.5601C31.452 41.6189 31.3997 41.6601 31.3997 41.741C31.3997 41.7674 31.4128 41.8086 31.4406 41.8631L35.7539 48.6684C35.7801 48.7096 35.7801 48.7492 35.7539 48.7905L31.4406 55.5958C31.3997 55.6634 31.3898 55.7212 31.4111 55.769C31.4308 55.8169 31.4815 55.84 31.5617 55.84H32.3082C32.4015 55.84 32.4833 55.7921 32.5504 55.6981L36.3596 49.6649C36.3727 49.6385 36.3923 49.6236 36.4201 49.6236C36.448 49.6236 36.4676 49.6368 36.4807 49.6649L40.2898 55.6981C40.357 55.7921 40.4372 55.84 40.5321 55.84H41.2573C41.3653 55.84 41.4177 55.7987 41.4177 55.7179C41.4177 55.6915 41.4046 55.6502 41.3768 55.5958L37.0831 48.8119V48.8103Z" fill="#665A44"/>
<path d="M52.904 41.7806C52.8631 41.6717 52.7829 41.6189 52.6617 41.6189H51.7549C51.6337 41.6189 51.5535 41.6733 51.5126 41.7806L47.0389 55.6139C46.998 55.7624 47.052 55.8367 47.1993 55.8367H47.9048C48.0259 55.8367 48.1062 55.7822 48.1471 55.675L48.9934 52.9727C49.0065 52.9314 49.0343 52.9116 49.0736 52.9116H55.361C55.402 52.9116 55.4282 52.9314 55.4413 52.9727L56.3088 55.675C56.3498 55.7839 56.43 55.8367 56.5511 55.8367H57.237C57.3581 55.8367 57.4187 55.7888 57.4187 55.6948L57.399 55.6139L52.904 41.7806ZM55.1106 51.9877C55.091 52.0075 55.0664 52.0174 55.0402 52.0174H49.3961C49.3682 52.0174 49.3453 52.0075 49.3257 51.9877C49.306 51.9679 49.3028 51.9432 49.3158 51.9168L52.1576 43.0806C52.1707 43.0542 52.1919 43.0394 52.2181 43.0394C52.2443 43.0394 52.2656 43.0525 52.2787 43.0806L55.1204 51.9168C55.1335 51.9448 55.1302 51.9679 55.1106 51.9877Z" fill="#665A44"/>
<path d="M70.3373 49.1963C70.3095 49.1551 70.3308 49.1221 70.3979 49.094C71.2851 48.9324 71.9906 48.5216 72.5145 47.8649C73.0383 47.2083 73.3002 46.3999 73.3002 45.4381C73.3002 44.3014 72.9548 43.3792 72.2624 42.6764C71.5699 41.9719 70.6598 41.6205 69.532 41.6205H64.4526C64.3183 41.6205 64.2512 41.6882 64.2512 41.8235V55.6354C64.2512 55.7707 64.3183 55.8383 64.4526 55.8383H65.1172C65.2514 55.8383 65.3185 55.7707 65.3185 55.6354V49.2574C65.3185 49.2029 65.3447 49.1765 65.3987 49.1765H69.2079C69.2488 49.1765 69.275 49.1963 69.2881 49.2376L72.372 55.6964C72.413 55.7905 72.4932 55.8383 72.6143 55.8383H73.2789C73.3869 55.8383 73.4393 55.7905 73.4393 55.6964C73.4393 55.6552 73.4328 55.6222 73.4197 55.5941L70.3357 49.1963H70.3373ZM65.4004 48.2823C65.3463 48.2823 65.3201 48.2559 65.3201 48.2015V42.6566C65.3201 42.6022 65.3463 42.5758 65.4004 42.5758H69.4321C70.2653 42.5758 70.9397 42.8397 71.457 43.3677C71.9743 43.8956 72.2329 44.5868 72.2329 45.4398C72.2329 46.2927 71.9743 46.9625 71.457 47.4921C70.9397 48.02 70.2653 48.284 69.4321 48.284H65.4004V48.2823Z" fill="#665A44"/>
<path d="M88.8003 41.6189H79.7104C79.5761 41.6189 79.509 41.6865 79.509 41.8218V42.3695C79.509 42.5048 79.5761 42.5725 79.7104 42.5725H83.5392C83.5932 42.5725 83.6194 42.5989 83.6194 42.6533V55.6337C83.6194 55.769 83.6865 55.8367 83.8207 55.8367H84.4853C84.6195 55.8367 84.6867 55.769 84.6867 55.6337V42.6533C84.6867 42.5989 84.7128 42.5725 84.7669 42.5725H88.7986C88.9329 42.5725 89 42.5048 89 42.3695V41.8218C89 41.6865 88.9329 41.6189 88.7986 41.6189H88.8003Z" fill="#665A44"/>
<path d="M24.2233 36.7109C23.5653 36.7109 22.8876 36.5674 22.2017 36.2341C20.9004 35.6022 20.1212 33.8386 20.388 32.1311C20.5337 31.199 21.2376 28.9784 24.6031 28.5164C26.0321 28.3201 28.224 28.9685 30.9839 29.8643L43.269 0.34982C43.3558 0.141948 43.5555 0.00501208 43.7781 6.27556e-05C43.9958 -0.0032368 44.207 0.123799 44.3019 0.328372L46.8146 5.72974C46.8818 5.87492 46.885 6.04155 46.8245 6.19003L40.9904 20.3303C40.1589 22.4321 40.4895 24.7632 41.876 26.5598C43.2478 28.3366 45.3823 29.2209 47.5889 28.9272C50.6893 28.5131 53.2036 27.2362 53.2298 27.223C53.4098 27.1306 53.6275 27.1422 53.7962 27.2544C53.9664 27.3666 54.063 27.5612 54.0499 27.7658L53.8273 31.3673C53.8174 31.5372 53.7323 31.6923 53.5948 31.7929C47.2992 36.3925 38.2289 33.4295 31.6043 31.2633C31.5912 31.2584 31.5764 31.2551 31.5633 31.2501C30.7907 32.4528 27.7984 36.7109 24.2217 36.7109H24.2233ZM25.1629 29.6201C25.0172 29.6201 24.8797 29.6284 24.7553 29.6465C22.2345 29.993 21.637 31.4646 21.5044 32.3109C21.3178 33.5004 21.8498 34.8004 22.6912 35.2096C26.024 36.8264 29.3879 32.4413 30.4437 30.8888C28.2535 30.1811 26.3677 29.6234 25.1646 29.6234L25.1629 29.6201ZM32.0626 30.2157C38.3664 32.2763 46.921 35.0364 52.7158 31.0241L52.8631 28.6402C51.8155 29.0807 49.933 29.7637 47.7379 30.0573C45.1319 30.4054 42.6061 29.3595 40.9855 27.261C39.3486 25.1426 38.959 22.3908 39.9444 19.9013L45.6868 5.9871L43.8207 1.97484L32.0642 30.2157H32.0626Z" fill="#B68E27"/>
<path d="M64.7767 36.7109C61.2 36.7109 58.2093 32.4528 57.435 31.2501L57.3941 31.2633C56.9227 31.4184 56.4382 31.5751 55.9422 31.7351C55.6442 31.8308 55.3267 31.6658 55.2317 31.3656C55.1368 31.0653 55.3005 30.7453 55.5984 30.6496C56.0436 30.5061 56.4823 30.3625 56.9096 30.2239L48.3255 11.6772L46.993 15.1136L49.049 19.8832C49.049 19.8832 49.054 19.8931 49.0556 19.8997C49.9723 22.2176 49.7104 24.7368 48.3353 26.8106C48.1618 27.0729 47.8115 27.1422 47.5512 26.9673C47.291 26.7924 47.2222 26.4394 47.3957 26.177C48.5596 24.4217 48.7822 22.2902 48.0096 20.3286L45.8636 15.3512C45.8046 15.2126 45.8014 15.0576 45.8554 14.9173L47.7542 10.0224C47.8361 9.80962 48.0358 9.66774 48.2633 9.66114C48.4876 9.65289 48.6987 9.78322 48.7937 9.98945L57.9949 29.8692C60.7662 28.9701 62.9662 28.3185 64.3986 28.5148C67.7641 28.9767 68.468 31.1973 68.6137 32.1294C68.8805 33.837 68.1013 35.6006 66.7999 36.2324C66.1124 36.5657 65.4347 36.7092 64.7767 36.7092V36.7109ZM58.5563 30.8855C59.6122 32.438 62.9761 36.8247 66.3089 35.2063C67.1502 34.7988 67.6822 33.4988 67.4956 32.3076C67.363 31.4613 66.7639 29.9897 64.2447 29.6432C63.0857 29.4832 61.0134 30.0903 58.5563 30.8839V30.8855Z" fill="#B68E27"/>
</svg>
