<svg width="24" height="24" viewBox="0 0 24 24" fill="none" xmlns="http://www.w3.org/2000/svg">
<path d="M17.0602 13.9143L19.7297 16.5839C19.8154 16.6691 19.8834 16.7705 19.9297 16.882C19.9761 16.9936 20 17.1133 20 17.2341C20 17.355 19.9761 17.4746 19.9297 17.5862C19.8834 17.6978 19.8154 17.7991 19.7297 17.8844C18.791 18.8233 17.5451 19.3921 16.2207 19.4861C14.8963 19.5802 13.5825 19.1933 12.5204 18.3965L10.9326 17.2049C9.17486 15.8866 7.61341 14.3251 6.2951 12.5674L5.10347 10.9796C4.30667 9.91752 3.91979 8.60367 4.01387 7.27931C4.10795 5.95494 4.67668 4.70898 5.61561 3.77025C5.70086 3.6846 5.80218 3.61663 5.91378 3.57025C6.02537 3.52387 6.14502 3.5 6.26587 3.5C6.38671 3.5 6.50637 3.52387 6.61796 3.57025C6.72955 3.61663 6.83088 3.6846 6.91613 3.77025L9.58571 6.43984C9.77471 6.6289 9.88089 6.88528 9.88089 7.15261C9.88089 7.41993 9.77471 7.67631 9.58571 7.86537L8.55639 8.89469C8.47605 8.97423 8.423 9.0772 8.40489 9.18879C8.38677 9.30039 8.40452 9.41485 8.45557 9.51572C9.65167 11.9083 11.5917 13.8483 13.9843 15.0444C14.0852 15.0955 14.1996 15.1132 14.3112 15.0951C14.4228 15.077 14.5258 15.024 14.6053 14.9436L15.6336 13.9153C15.7273 13.8216 15.8384 13.7472 15.9608 13.6965C16.0832 13.6457 16.2144 13.6196 16.3469 13.6196C16.4794 13.6196 16.6106 13.6457 16.733 13.6965C16.8553 13.7472 16.9665 13.8216 17.0602 13.9153V13.9143Z" stroke="#0A0A0A" stroke-width="1.5"/>
</svg>
