<svg width="120" height="25" viewBox="0 0 120 25" fill="none" xmlns="http://www.w3.org/2000/svg">
<path fill-rule="evenodd" clip-rule="evenodd" d="M4.6144 15.3314H0.826501V8.66265C0.826501 8.38765 0.826501 8.04395 0.413301 8.04395C5.06639e-07 8.04395 0 8.38765 0 8.66265V15.3314C0 15.8814 0.0688999 15.9501 0.6888 15.9501H4.6144C4.8899 15.9501 5.2342 15.9501 5.2342 15.6064C5.2342 15.3314 4.8899 15.3314 4.6144 15.3314Z" fill="#FFFFFE"/>
<path fill-rule="evenodd" clip-rule="evenodd" d="M6.33659 10.2437C5.99219 10.2437 5.99219 10.5875 5.99219 10.7937V15.6062C5.99219 15.8812 5.99219 16.1562 6.33659 16.1562C6.68089 16.1562 6.68089 15.8812 6.68089 15.6062V10.7937C6.68089 10.5875 6.68089 10.2437 6.33659 10.2437Z" fill="#FFFFFE"/>
<path fill-rule="evenodd" clip-rule="evenodd" d="M6.33562 8.31885C6.06012 8.31885 5.85352 8.52515 5.85352 8.73135C5.85352 8.93765 6.06012 9.14385 6.33562 9.14385C6.61102 9.14385 6.81771 8.93765 6.81771 8.73135C6.81771 8.52515 6.61102 8.31885 6.33562 8.31885Z" fill="#FFFFFE"/>
<path fill-rule="evenodd" clip-rule="evenodd" d="M9.91735 10.3814H9.15985V9.90015C9.15985 9.21265 9.22865 8.73145 10.124 8.73145C10.124 8.73145 10.2617 8.73145 10.3306 8.73145C10.4683 8.73145 10.5372 8.73145 10.6061 8.73145C10.8127 8.73145 10.8815 8.59395 10.8815 8.45645C10.8815 8.45645 10.8815 8.31895 10.7438 8.18145C10.6061 8.11265 10.1928 8.04395 9.84855 8.04395C9.57305 8.04395 9.29755 8.11265 9.09095 8.18145C8.88435 8.31895 8.67775 8.45645 8.53995 8.66265C8.47115 8.80015 8.33335 9.00644 8.33335 9.69394V10.3814H7.71355C7.57575 10.3814 7.23145 10.3814 7.23145 10.6564C7.23145 10.9314 7.57575 10.9314 7.71355 10.9314H8.40225V15.6751C8.40225 15.9501 8.40225 16.2251 8.74655 16.2251C9.09095 16.2251 9.09095 15.9501 9.09095 15.6751V10.9314H9.84855C10.124 10.9314 10.3306 10.8626 10.3306 10.6564C10.3994 10.3814 10.124 10.3814 9.91735 10.3814Z" fill="#FFFFFE"/>
<path fill-rule="evenodd" clip-rule="evenodd" d="M11.1574 12.7187C11.2263 12.0312 11.7772 10.7937 13.1546 10.7937C14.8764 10.7937 15.0142 12.2375 15.083 12.7187H11.1574ZM15.8407 12.7875C15.8407 12.7875 15.8407 12.1 15.4963 11.4812C15.2897 11.1375 15.0143 10.8625 14.7388 10.6562C14.6699 10.6562 14.6699 10.5875 14.601 10.5875C14.601 10.5875 14.5322 10.5875 14.5322 10.5187C14.4633 10.45 14.3943 10.45 14.2566 10.3812H14.1877C14.1188 10.3812 13.9812 10.3125 13.9123 10.3125H13.8435C13.7057 10.3125 13.568 10.2437 13.4991 10.2437C13.4991 10.2437 13.499 10.2437 13.4301 10.2437C13.3613 10.2437 13.2924 10.2437 13.2235 10.2437C12.3282 10.2437 11.6395 10.5187 11.1574 11.0687C10.6753 11.55 10.4688 12.3062 10.4688 13.2C10.4688 14.0937 10.6753 14.7812 11.1574 15.3312C11.364 15.6062 11.7084 15.8125 12.0527 15.95C12.3971 16.0875 12.8103 16.1562 13.2924 16.1562C14.3943 16.1562 15.0142 15.7437 15.2896 15.4C15.7029 14.9875 15.7717 14.575 15.7717 14.5062C15.7717 14.3687 15.6341 14.1625 15.4275 14.1625C15.2897 14.1625 15.1519 14.2312 15.083 14.4375C14.8764 14.9187 14.5321 15.2625 14.1188 15.4687C13.8434 15.6062 13.5679 15.675 13.2924 15.675C12.6726 15.675 12.1217 15.4687 11.7773 14.9875C11.3641 14.5062 11.1574 13.9562 11.1574 13.2687H15.1519C15.4962 13.2687 15.8407 13.2687 15.8407 12.7875Z" fill="#FFFFFE"/>
<path fill-rule="evenodd" clip-rule="evenodd" d="M19.5598 8.1123C19.1465 8.1123 19.1465 8.456 19.1465 8.731V15.5373C19.1465 15.8123 19.1465 16.156 19.5598 16.156C19.973 16.156 19.973 15.8123 19.973 15.5373V8.731C19.973 8.456 19.973 8.1123 19.5598 8.1123Z" fill="#FFFFFE"/>
<path fill-rule="evenodd" clip-rule="evenodd" d="M32.8517 12.2374C33.1272 12.2374 33.265 12.0311 33.265 11.8249V7.1499H32.4385V11.8249C32.4385 11.9624 32.6451 12.2374 32.8517 12.2374Z" fill="#FFFFFE"/>
<path fill-rule="evenodd" clip-rule="evenodd" d="M25.1375 13.1998C25.0687 13.1998 24.9998 13.131 24.9998 13.131H24.9309C24.5177 12.9248 24.0356 12.856 23.6224 12.7185C23.1403 12.6498 22.7271 12.5123 22.4516 12.3748C22.1072 12.2373 21.9695 11.9623 21.9695 11.6873C21.9695 11.0685 22.7271 10.7935 23.4158 10.7935C24.1733 10.7935 24.7243 11.0685 24.9309 11.5498C25.0687 11.8248 25.1375 11.8935 25.2753 11.8935C25.6196 11.8935 25.6196 11.6185 25.6196 11.6185C25.6196 11.5498 25.5508 11.206 25.2753 10.8623C25.0687 10.656 24.862 10.5185 24.5866 10.381C24.2422 10.2435 23.829 10.1748 23.3469 10.1748C22.5204 10.1748 21.9006 10.381 21.5563 10.8623C21.2119 11.2748 21.2119 11.6873 21.2119 11.756C21.2119 12.1685 21.4185 12.581 21.7629 12.7873C22.1072 12.9935 22.5204 13.131 23.278 13.2685C23.4846 13.3373 23.6912 13.406 23.9667 13.4748C24.38 13.5435 25.1375 13.7498 25.1375 14.4373C25.1375 14.9873 24.6554 15.4685 23.4846 15.4685C22.6582 15.4685 22.1072 15.1248 21.8317 14.506C21.7629 14.2998 21.694 14.1623 21.4874 14.1623C21.4185 14.1623 21.2808 14.1623 21.2119 14.231C21.143 14.2998 21.0742 14.3685 21.0742 14.4373C21.0742 14.781 21.3496 15.1935 21.694 15.5373C21.9006 15.6748 22.0384 15.8123 22.3138 15.881C22.5893 15.9498 23.0025 16.0185 23.4158 16.0185C24.38 16.0185 25.0687 15.8123 25.4819 15.331C25.8262 14.9185 25.8951 14.506 25.8951 14.2998C25.8951 13.8873 25.6885 13.4748 25.1375 13.1998Z" fill="#FFFFFE"/>
<path fill-rule="evenodd" clip-rule="evenodd" d="M42.355 10.8625C42.0795 10.5875 41.5975 10.2437 40.7021 10.2437C39.5313 10.2437 39.0492 10.7937 38.7049 11.2062V10.7937C38.7049 10.6562 38.7049 10.45 38.5671 10.3125C38.5671 10.3125 38.5671 10.3125 38.4983 10.3125C38.4294 10.3125 38.3605 10.2437 38.2917 10.2437C37.9473 10.2437 37.9473 10.5875 37.9473 10.7937V15.6062C37.9473 15.8812 37.9473 16.1562 38.2917 16.1562C38.3605 16.1562 38.4294 16.1562 38.4983 16.0875C38.4983 16.0875 38.4983 16.0875 38.5671 16.0875C38.7049 15.95 38.7049 15.8125 38.7049 15.6062V13.5437C38.7049 12.65 38.7049 12.1687 38.9115 11.825C39.0492 11.55 39.3247 11.275 39.6002 11.0687C39.8757 10.8625 40.22 10.7937 40.5644 10.7937C41.0465 10.7937 41.5286 11 41.7352 11.3437C41.9418 11.6187 42.0107 12.1 42.0107 12.5125V15.6062C42.0107 15.7437 42.0107 15.95 42.1484 16.0875C42.1484 16.0875 42.1484 16.0875 42.2173 16.0875C42.2862 16.0875 42.355 16.1562 42.4239 16.1562C42.7683 16.1562 42.7683 15.8125 42.7683 15.6062V12.375C42.8371 12.0312 42.8371 11.3437 42.355 10.8625Z" fill="#FFFFFE"/>
<path fill-rule="evenodd" clip-rule="evenodd" d="M34.0218 7.9751V8.8002C35.3992 9.2814 36.3633 10.5189 36.3633 12.0314C36.3633 13.9564 34.8483 15.4689 32.9199 15.4689C30.9915 15.4689 29.4764 13.9564 29.4764 12.0314C29.4764 10.5877 30.4406 9.2814 31.7491 8.8002V7.9751C30.0273 8.5252 28.7188 10.1064 28.7188 12.0314C28.7188 14.3689 30.5783 16.2251 32.9199 16.2251C35.2615 16.2251 37.121 14.3689 37.121 12.0314C37.121 10.1064 35.8125 8.4564 34.0218 7.9751Z" fill="#FFFFFE"/>
<path fill-rule="evenodd" clip-rule="evenodd" d="M64.6693 8.86885C63.2919 8.25005 62.3965 7.97515 61.5701 7.97515C60.6748 7.97515 60.1238 8.31885 60.1238 8.80015C60.1238 10.2438 65.0825 9.83135 65.0825 13.2C65.0825 15.0563 63.4985 16.1563 61.3635 16.1563C59.6417 16.1563 58.8153 15.7438 57.8511 15.1938V13.1313C59.2285 14.0251 60.1238 14.3688 61.1569 14.3688C62.0522 14.3688 62.6032 14.0251 62.6032 13.4751C62.6032 11.8938 57.6445 12.4438 57.6445 9.00635C57.6445 7.35635 59.0908 6.25635 61.3635 6.25635C62.4654 6.25635 63.4296 6.46265 64.6693 7.01265V8.86885Z" fill="#FFFFFE"/>
<path fill-rule="evenodd" clip-rule="evenodd" d="M71.6256 15.675C70.7991 15.95 70.1104 16.0875 69.4217 16.0875C67.149 16.0875 65.6338 14.7812 65.6338 12.7188C65.6338 10.725 67.149 9.28125 69.3528 9.28125C70.0416 9.28125 70.868 9.41875 71.5567 9.69375V11.2062C71.0057 10.9312 70.3859 10.7937 69.9038 10.7937C68.6641 10.7937 67.9066 11.55 67.9066 12.65C67.9066 13.8187 68.6641 14.5751 69.8349 14.5751C70.317 14.5751 70.7991 14.4376 71.6944 14.0938V15.675" fill="#FFFFFE"/>
<path fill-rule="evenodd" clip-rule="evenodd" d="M89.532 12.0314C89.6 11.1377 90.151 10.5876 90.978 10.5876C91.804 10.5876 92.286 11.1377 92.424 12.0314H89.532ZM90.84 9.3501C88.843 9.3501 87.397 10.7939 87.397 12.7877C87.397 14.7814 88.912 16.1564 91.185 16.1564C91.667 16.1564 92.906 16.1564 94.077 15.2626V13.9564C93.113 14.6439 92.493 14.8501 91.667 14.8501C90.358 14.8501 89.6 14.1627 89.532 13.0627H94.215C94.284 10.7252 92.7 9.3501 90.84 9.3501Z" fill="#FFFFFE"/>
<path fill-rule="evenodd" clip-rule="evenodd" d="M94.9727 16.0185H97.0387V9.4873H94.9727V16.0185Z" fill="#FFFFFE"/>
<path fill-rule="evenodd" clip-rule="evenodd" d="M102.755 14.2315C102.342 14.644 101.998 14.7815 101.516 14.7815C100.551 14.7815 99.9307 13.9565 99.9307 12.7877C99.9307 11.4815 100.551 10.7252 101.584 10.7252C101.929 10.7252 102.411 10.8627 102.755 11.1377V14.2315ZM102.755 6.3252V9.7627C102.204 9.4877 101.653 9.35019 101.033 9.35019C99.1737 9.35019 97.8647 10.7252 97.8647 12.719C97.8647 14.644 99.1737 16.0877 100.896 16.0877C101.584 16.0877 102.135 15.8815 102.686 15.469V16.019H104.752V6.3252H102.755Z" fill="#FFFFFE"/>
<path fill-rule="evenodd" clip-rule="evenodd" d="M107.851 12.0314C107.92 11.1377 108.471 10.5876 109.297 10.5876C110.124 10.5876 110.606 11.1377 110.744 12.0314H107.851ZM109.159 9.3501C107.162 9.3501 105.716 10.7939 105.716 12.7877C105.716 14.7814 107.231 16.1564 109.504 16.1564C109.986 16.1564 111.226 16.1564 112.396 15.2626V13.9564C111.432 14.6439 110.812 14.8501 109.986 14.8501C108.677 14.8501 107.92 14.1627 107.851 13.0627H112.534C112.603 10.7252 111.019 9.3501 109.159 9.3501Z" fill="#FFFFFE"/>
<path fill-rule="evenodd" clip-rule="evenodd" d="M115.565 11.3439C116.185 9.9689 116.874 9.3501 117.7 9.3501C118.113 9.3501 118.458 9.4877 119.078 9.9689L118.527 11.7564C117.976 11.4127 117.631 11.2751 117.287 11.2751C116.529 11.2751 116.047 11.9626 115.565 13.2001V16.0189H113.499V9.4877H115.565V11.3439Z" fill="#FFFFFE"/>
<path fill-rule="evenodd" clip-rule="evenodd" d="M97.1079 6.73753C97.3139 7.21883 96.9699 7.97503 96.3499 8.31883C95.7299 8.66253 95.0419 8.59383 94.9039 8.04383C94.6969 7.56253 95.0419 6.80633 95.6619 6.46253C96.2809 6.11883 96.9699 6.18753 97.1079 6.73753Z" fill="#FFFFFE"/>
<path fill-rule="evenodd" clip-rule="evenodd" d="M78.9949 11.8252C78.9949 10.0377 77.7552 9.35019 76.5844 9.35019C75.758 9.35019 75.138 9.694 74.5182 10.4502V6.3252H72.4521V15.9502H74.5182V11.8252C75.0003 11.1377 75.4136 10.8627 75.8957 10.8627C76.5156 10.8627 76.9287 11.344 76.9287 12.3065V14.5752C77.6174 14.2315 78.3062 14.0252 78.9949 13.9565V11.8252Z" fill="#FFFFFE"/>
<path fill-rule="evenodd" clip-rule="evenodd" d="M84.1601 9.3501C83.3337 9.3501 82.7139 9.6939 82.0251 10.3814V9.4189H79.959V13.8876C80.6477 13.9564 81.6119 14.3001 82.0251 14.8501V11.8251C82.5761 11.0001 82.9205 10.7251 83.4714 10.7251C84.0224 10.7251 84.5049 11.1377 84.5049 12.0314V16.0189H86.5709V11.8939C86.5709 9.9002 85.1929 9.3501 84.1601 9.3501Z" fill="#FFFFFE"/>
<path fill-rule="evenodd" clip-rule="evenodd" d="M87.6719 17.875H85.2619V19.5937H87.6029V20.2812H85.2619V22.0687H87.7409V22.7562H84.5039V17.1187H87.6719V17.875Z" fill="#FFFFFE"/>
<path fill-rule="evenodd" clip-rule="evenodd" d="M89.6011 22.7562H90.3581V17.1187H89.6011V22.7562Z" fill="#FFFFFE"/>
<path fill-rule="evenodd" clip-rule="evenodd" d="M94.0076 19.5939C94.5586 19.5939 94.8336 19.9377 94.9026 20.4877H93.0436C93.1126 19.9377 93.4566 19.5939 94.0076 19.5939ZM92.9746 21.0377H95.5916C95.5916 19.6627 94.9716 18.9751 94.0076 18.9751C92.9746 18.9751 92.2856 19.7314 92.2856 20.8314C92.2856 21.8627 92.9056 22.8251 94.0766 22.8251C94.6966 22.8251 95.1096 22.6877 95.5916 22.4127V21.7251C95.1786 22.0002 94.7656 22.2064 94.2836 22.2064C93.5256 22.1377 93.1126 21.7939 92.9746 21.0377Z" fill="#FFFFFE"/>
<path fill-rule="evenodd" clip-rule="evenodd" d="M100.345 20.0063C99.9317 19.7313 99.6557 19.6625 99.3117 19.6625C98.6227 19.6625 98.2097 20.1437 98.2097 20.9C98.2097 21.6562 98.6917 22.1375 99.4497 22.1375C99.7937 22.1375 100.069 22.0688 100.414 21.8626V22.5501C100.138 22.6876 99.7247 22.7563 99.3117 22.7563C98.2097 22.7563 97.4517 22 97.4517 20.9C97.4517 19.6625 98.1407 18.9062 99.3117 18.9062C99.7247 18.9062 100.001 18.975 100.414 19.1812V20.0063" fill="#FFFFFE"/>
<path fill-rule="evenodd" clip-rule="evenodd" d="M103.719 19.0439H104.89V19.7314H103.719V21.6564C103.719 22.0689 104.063 22.2064 104.27 22.2064C104.545 22.2064 104.821 22.1376 105.096 21.9314V22.6189C104.821 22.7564 104.476 22.8939 104.201 22.8939C103.374 22.8939 103.03 22.4126 103.03 21.7251V19.8001H102.41V19.7314L103.788 18.3564V19.0439" fill="#FFFFFE"/>
<path fill-rule="evenodd" clip-rule="evenodd" d="M107.644 19.0437V19.8687C107.989 19.1812 108.402 18.9062 108.746 18.9062C109.022 18.9062 109.297 19.0438 109.642 19.3188L109.228 19.9375C109.022 19.7312 108.746 19.5937 108.54 19.5937C108.058 19.5937 107.644 20.075 107.644 20.7625V22.7563H106.887V19.0437H107.644Z" fill="#FFFFFE"/>
<path fill-rule="evenodd" clip-rule="evenodd" d="M117.149 20.0063C116.735 19.7313 116.46 19.6625 116.116 19.6625C115.427 19.6625 115.014 20.1437 115.014 20.9C115.014 21.6562 115.496 22.1375 116.253 22.1375C116.598 22.1375 116.873 22.0688 117.217 21.8626V22.5501C116.942 22.6876 116.529 22.7563 116.116 22.7563C115.014 22.7563 114.256 22 114.256 20.9C114.256 19.6625 114.945 18.9062 116.116 18.9062C116.529 18.9062 116.804 18.975 117.217 19.1812V20.0063" fill="#FFFFFE"/>
<path fill-rule="evenodd" clip-rule="evenodd" d="M111.57 22.7564H112.328V19.0439H111.57V22.7564Z" fill="#FFFFFE"/>
<path fill-rule="evenodd" clip-rule="evenodd" d="M112.328 17.7374C112.397 17.9436 112.259 18.1499 112.052 18.2874C111.846 18.4249 111.57 18.3561 111.501 18.2186C111.433 18.0124 111.57 17.8061 111.777 17.6686C112.052 17.5311 112.259 17.5311 112.328 17.7374Z" fill="#FFFFFE"/>
<path fill-rule="evenodd" clip-rule="evenodd" d="M79.5457 18.0125C79.4079 18.0125 79.3391 18.0125 79.3391 18.0813C79.3391 18.0813 79.3391 18.15 79.2702 18.15L78.5815 20.625C78.4437 21.5188 77.3418 22.3438 75.9644 22.3438H74.036L74.3804 21.0375H75.6201C75.7578 21.0375 75.8267 20.9688 75.9644 20.9C75.9644 20.8313 76.0333 20.8313 76.0333 20.7625L76.5842 18.5625C76.722 17.6688 77.6862 16.7063 79.0636 16.7063H81.0608L80.7853 17.875H79.5457V18.0125ZM80.0278 19.525L80.2344 18.7H82.2316C82.5071 17.5313 82.3005 16.4313 81.5429 15.7438C80.0966 14.3 77.1352 14.7813 74.8625 16.9125C74.5181 17.2563 74.2426 17.6 73.9672 17.9438H75.2068L74.9314 18.7688H73.4851C73.3473 19.0438 73.2096 19.25 73.1407 19.525H74.8625L74.587 20.35H72.8652C72.5898 21.5875 72.7275 22.7563 73.4851 23.4438C74.9313 24.8875 77.8928 24.3375 80.0966 22.2063C80.5099 21.8625 80.7853 21.45 81.1297 21.0375H79.5457L79.7523 20.2125H81.6118C81.7495 19.9375 81.8873 19.7313 81.9561 19.4563H80.0278V19.525Z" fill="#FFFFFE"/>
<path fill-rule="evenodd" clip-rule="evenodd" d="M50.0693 24.6125H50.4825V0H50.0693V24.6125Z" fill="#FFFFFE"/>
</svg>
